<?xml version="1.0" encoding="UTF-8"?>
<svg width="1200pt" height="1200pt" version="1.1" viewBox="284 186 632 828" xmlns="http://www.w3.org/2000/svg">
 <path d="m730.08 186c9.9844 0 18 8.0625 18 18v72c0 9.9375-8.0156 18-18 18h-18v193.92l172.87 363.05c36.047 75.656-19.125 163.03-102.89 163.03h-367.92c-83.766 0-138.94-87.375-102.94-163.03l172.87-363.05v-193.92h-18c-9.9375 0-18-8.0625-18-18v-72c0-9.9375 8.0625-18 18-18zm-225.32 426-128.53 269.95c-13.266 27.844 7.0312 60.047 37.922 60.047h367.92c30.844 0 51.188-32.203 37.922-60.047l-128.53-269.95z" fill-rule="evenodd"/>
</svg>
